<mxfile host="app.diagrams.net" modified="2022-06-15T11:42:31.912Z" agent="5.0 (Windows NT 10.0; Win64; x64) AppleWebKit/537.36 (KHTML, like Gecko) Chrome/102.0.5005.63 Safari/537.36 Edg/102.0.1245.33" etag="wv3DqIAcTKLGSk9x7djT" version="19.0.2" type="github">
  <diagram id="nRZAXFzSuDFOWkE3orlE" name="Entities">
    <mxGraphModel dx="1965" dy="635" grid="1" gridSize="10" guides="1" tooltips="1" connect="1" arrows="1" fold="1" page="1" pageScale="1" pageWidth="827" pageHeight="1169" math="0" shadow="0">
      <root>
        <mxCell id="0" />
        <mxCell id="1" parent="0" />
        <mxCell id="w9dOBybXoR1HVG5cZJdW-1" value="Маршруты / Routes" style="swimlane;childLayout=stackLayout;horizontal=1;startSize=40;horizontalStack=0;rounded=1;fontSize=14;fontStyle=0;strokeWidth=2;resizeParent=0;resizeLast=1;shadow=0;dashed=0;align=center;" vertex="1" parent="1">
          <mxGeometry x="-580" y="60" width="190" height="120" as="geometry" />
        </mxCell>
        <mxCell id="w9dOBybXoR1HVG5cZJdW-2" value="+Id&#xa;+Name" style="align=left;strokeColor=none;fillColor=none;spacingLeft=4;fontSize=12;verticalAlign=top;resizable=0;rotatable=0;part=1;" vertex="1" parent="w9dOBybXoR1HVG5cZJdW-1">
          <mxGeometry y="40" width="190" height="80" as="geometry" />
        </mxCell>
        <mxCell id="w9dOBybXoR1HVG5cZJdW-3" value="Дистанции маршрута / RouteNodeLink" style="swimlane;childLayout=stackLayout;horizontal=1;startSize=40;horizontalStack=0;rounded=1;fontSize=14;fontStyle=0;strokeWidth=2;resizeParent=0;resizeLast=1;shadow=0;dashed=0;align=center;" vertex="1" parent="1">
          <mxGeometry x="-280" y="50" width="260" height="140" as="geometry" />
        </mxCell>
        <mxCell id="w9dOBybXoR1HVG5cZJdW-4" value="+Id&#xa;+RouteId&#xa;+StartRouteNodeId&#xa;+FinishRouteNodeId&#xa;+Length&#xa;+LengthUMId" style="align=left;strokeColor=none;fillColor=none;spacingLeft=4;fontSize=12;verticalAlign=top;resizable=0;rotatable=0;part=1;" vertex="1" parent="w9dOBybXoR1HVG5cZJdW-3">
          <mxGeometry y="40" width="260" height="100" as="geometry" />
        </mxCell>
        <mxCell id="w9dOBybXoR1HVG5cZJdW-7" value="" style="edgeStyle=entityRelationEdgeStyle;fontSize=12;html=1;endArrow=ERoneToMany;rounded=0;entryX=-0.001;entryY=0.204;entryDx=0;entryDy=0;entryPerimeter=0;exitX=1.014;exitY=0.178;exitDx=0;exitDy=0;exitPerimeter=0;" edge="1" parent="1" source="w9dOBybXoR1HVG5cZJdW-1" target="w9dOBybXoR1HVG5cZJdW-3">
          <mxGeometry width="100" height="100" relative="1" as="geometry">
            <mxPoint x="-380" y="330" as="sourcePoint" />
            <mxPoint x="-280" y="230" as="targetPoint" />
          </mxGeometry>
        </mxCell>
        <mxCell id="w9dOBybXoR1HVG5cZJdW-8" value="Журнал учета локаций&#xa;Inv.TrackingRegistries" style="swimlane;childLayout=stackLayout;horizontal=1;startSize=40;horizontalStack=0;rounded=1;fontSize=14;fontStyle=0;strokeWidth=2;resizeParent=0;resizeLast=1;shadow=0;dashed=0;align=center;" vertex="1" parent="1">
          <mxGeometry x="120" y="60" width="190" height="120" as="geometry" />
        </mxCell>
        <mxCell id="w9dOBybXoR1HVG5cZJdW-9" value="+EntityGuidId - Asset Guid&#xa;+EntityType - Asset&#xa;+LocationId&#xa;+RegistrationDateTime" style="align=left;strokeColor=none;fillColor=none;spacingLeft=4;fontSize=12;verticalAlign=top;resizable=0;rotatable=0;part=1;" vertex="1" parent="w9dOBybXoR1HVG5cZJdW-8">
          <mxGeometry y="40" width="190" height="80" as="geometry" />
        </mxCell>
      </root>
    </mxGraphModel>
  </diagram>
</mxfile>
